<?xml version="1.0" encoding="UTF-8" standalone="no"?>
<!-- Created with Inkscape (http://www.inkscape.org/) -->

<svg
   xmlns:dc="http://purl.org/dc/elements/1.1/"
   xmlns:cc="http://creativecommons.org/ns#"
   xmlns:rdf="http://www.w3.org/1999/02/22-rdf-syntax-ns#"
   xmlns:svg="http://www.w3.org/2000/svg"
   xmlns="http://www.w3.org/2000/svg"
   xmlns:sodipodi="http://sodipodi.sourceforge.net/DTD/sodipodi-0.dtd"
   xmlns:inkscape="http://www.inkscape.org/namespaces/inkscape"
   width="106.94698"
   height="35.224449"
   id="svg2"
   version="1.1"
   inkscape:version="0.91 r13725"
   sodipodi:docname="logo_white.svg">
  <defs
     id="defs4" />
  <sodipodi:namedview
     id="base"
     pagecolor="#ffffff"
     bordercolor="#666666"
     borderopacity="1.0"
     inkscape:pageopacity="0.0"
     inkscape:pageshadow="2"
     inkscape:zoom="3.959798"
     inkscape:cx="48.871803"
     inkscape:cy="-2.5587127"
     inkscape:document-units="px"
     inkscape:current-layer="layer1"
     showgrid="false"
     fit-margin-top="0"
     fit-margin-left="0"
     fit-margin-right="0"
     fit-margin-bottom="0"
     inkscape:window-width="1280"
     inkscape:window-height="739"
     inkscape:window-x="0"
     inkscape:window-y="0"
     inkscape:window-maximized="1" />
  <metadata
     id="metadata7">
    <rdf:RDF>
      <cc:Work
         rdf:about="">
        <dc:format>image/svg+xml</dc:format>
        <dc:type
           rdf:resource="http://purl.org/dc/dcmitype/StillImage" />
        <dc:title></dc:title>
      </cc:Work>
    </rdf:RDF>
  </metadata>
  <g
     inkscape:label="Layer 1"
     inkscape:groupmode="layer"
     id="layer1"
     transform="translate(-116.46205,-365.46988)">
    <g
       style="font-style:normal;font-weight:normal;font-size:38.93128586px;line-height:125%;font-family:Sans;letter-spacing:0px;word-spacing:0px;fill:#ffffff;fill-opacity:1;stroke:none"
       id="text2985">
      <path
         d="m 139.3684,368.18822 -8.72532,24.65522 -2.96547,0 -8.91542,-24.69324 -2.30014,-0.38018 0,-1.67283 9.31462,0 0,1.67283 -2.30014,0.19009 q -0.17109,0.038 -0.26614,0.22811 -0.095,0.17109 -0.095,0.34217 0,0.0951 0.019,0.13307 l 6.84339,19.23753 6.57726,-19.16149 q 0.019,-0.038 0.019,-0.13307 0,-0.2091 -0.17108,-0.41821 -0.17108,-0.2091 -0.38019,-0.22811 l -2.14806,-0.19009 0,-1.67283 7.73683,0 0,1.67283 -2.24311,0.4182 z"
         style="font-style:normal;font-variant:normal;font-weight:normal;font-stretch:normal;font-family:'Abyssinica SIL';-inkscape-font-specification:'Abyssinica SIL';fill:#ffffff;fill-opacity:1"
         id="path4162" />
      <path
         d="m 161.85654,382.86349 q 0,2.07203 -0.66533,3.87792 -0.64632,1.78689 -1.86292,3.11755 -1.1976,1.31165 -2.92745,2.07202 -1.71085,0.76038 -3.83991,0.76038 -2.12905,0 -3.8399,-0.74137 -1.71085,-0.76037 -2.90844,-2.07202 -1.19759,-1.31165 -1.84391,-3.09854 -0.62731,-1.80589 -0.62731,-3.91594 0,-2.07202 0.64632,-3.87792 0.64632,-1.80589 1.86292,-3.13655 1.2166,-1.34967 2.92745,-2.11005 1.72986,-0.76037 3.89693,-0.76037 2.16707,0 3.87792,0.77938 1.71085,0.77939 2.88943,2.12906 1.17859,1.33066 1.78689,3.13655 0.62731,1.78689 0.62731,3.8399 z m -4.04901,-0.038 q 0,-1.59679 -0.32316,-3.06051 -0.30415,-1.46373 -0.95047,-2.58528 -0.64632,-1.12156 -1.6158,-1.78689 -0.96948,-0.66533 -2.28113,-0.66533 -1.34967,0 -2.33816,0.66533 -0.98849,0.66533 -1.63481,1.78689 -0.62731,1.12155 -0.93146,2.58528 -0.30415,1.46372 -0.30415,3.06051 0,1.57779 0.30415,3.04151 0.32316,1.46373 0.96948,2.58528 0.64632,1.12156 1.6158,1.8059 0.96948,0.66533 2.28113,0.66533 1.33066,0 2.31915,-0.66533 0.98849,-0.66533 1.6158,-1.78689 0.64632,-1.12156 0.95047,-2.58528 0.32316,-1.46373 0.32316,-3.06052 z"
         style="font-style:normal;font-variant:normal;font-weight:normal;font-stretch:normal;font-family:'Abyssinica SIL';-inkscape-font-specification:'Abyssinica SIL';fill:#ffffff;fill-opacity:1"
         id="path4164" />
      <path
         d="m 181.98751,384.8975 q 0,1.48273 -0.58929,2.90844 -0.57028,1.42571 -1.8249,2.54726 -1.25462,1.12156 -3.21259,1.8059 -1.95797,0.68434 -4.69533,0.68434 -1.59679,0 -2.87042,-0.22812 -1.25462,-0.22811 -2.16707,-0.49424 -1.04552,-0.32316 -1.88194,-0.72236 l 0,-6.90042 2.45222,0 0.51325,4.41019 q 0.038,0.22811 0.22812,0.49424 0.2091,0.26613 0.4182,0.36118 l 0.32316,0.17109 q 0.28514,0.13306 0.77939,0.30415 0.49424,0.15207 1.19759,0.28514 0.72236,0.13306 1.63481,0.13306 1.23561,0 2.28113,-0.30415 1.06453,-0.32316 1.82491,-0.91245 0.76037,-0.58929 1.17858,-1.44472 0.43722,-0.85542 0.43722,-1.93896 0,-1.17858 -0.68434,-2.05301 -0.66533,-0.89345 -1.69184,-1.57778 -1.0075,-0.70335 -2.20509,-1.25463 -1.1976,-0.55127 -2.26212,-1.06452 -1.1976,-0.57029 -2.30014,-1.17859 -1.08354,-0.6083 -1.91995,-1.40669 -0.81741,-0.7984 -1.31165,-1.86293 -0.47524,-1.08353 -0.47524,-2.56627 0,-1.72985 0.68434,-3.13655 0.68434,-1.4067 1.88193,-2.39519 1.2166,-1.0075 2.85141,-1.53976 1.65382,-0.55127 3.57377,-0.55127 1.04552,0 1.95797,0.11405 0.91246,0.11406 1.71085,0.30415 0.81741,0.17109 1.52076,0.3992 0.70334,0.2091 1.33065,0.3992 l 0.34217,0.11406 0,6.064 -2.2241,0 -0.58929,-3.72585 q -0.038,-0.26613 -0.24712,-0.38018 -0.1901,-0.13307 -0.36118,-0.30416 -0.076,-0.057 -0.30415,-0.19009 -0.22811,-0.15208 -0.64632,-0.30415 -0.3992,-0.15208 -1.0075,-0.26613 -0.6083,-0.11406 -1.42571,-0.11406 -1.17858,0 -2.11004,0.34217 -0.93146,0.34217 -1.57778,0.96948 -0.64632,0.6083 -1.0075,1.44472 -0.34217,0.83641 -0.34217,1.8249 0,0.89344 0.34217,1.63481 0.36118,0.72236 1.04551,1.34967 0.70335,0.6083 1.71085,1.14056 1.0075,0.53227 2.31915,1.02651 1.76788,0.66533 3.13655,1.38769 1.38769,0.72236 2.31915,1.6158 0.95047,0.89344 1.44472,2.015 0.49424,1.10254 0.49424,2.56627 z"
         style="font-style:normal;font-variant:normal;font-weight:normal;font-stretch:normal;font-family:'Abyssinica SIL';-inkscape-font-specification:'Abyssinica SIL';fill:#ffffff;fill-opacity:1"
         id="path4166" />
      <path
         d="m 201.28207,390.27716 q -0.8174,0.51326 -1.71085,0.95048 -0.87443,0.43721 -1.8249,0.76037 -0.93146,0.32316 -1.90094,0.51326 -0.96948,0.19009 -1.95797,0.19009 -1.76788,0 -3.40269,-0.58929 -1.63481,-0.6083 -2.88943,-1.8059 -1.23561,-1.19759 -1.99599,-3.00348 -0.74137,-1.82491 -0.74137,-4.25811 0,-2.28113 0.68434,-4.12505 0.68434,-1.86292 1.90094,-3.17457 1.21661,-1.33066 2.88944,-2.03401 1.67283,-0.72235 3.66881,-0.72235 1.8059,0 3.17458,0.6083 1.36867,0.58929 2.28113,1.65382 0.91245,1.04551 1.36867,2.52825 0.45623,1.46372 0.45623,3.19358 l 0,0.51325 q 0,0.30416 -0.038,0.57029 l -12.62225,0 q 0,1.48273 0.30415,2.96547 0.32316,1.48273 1.06453,2.66131 0.74136,1.17859 1.99599,1.91996 1.25462,0.72235 3.13655,0.72235 0.83641,0 1.65382,-0.2091 0.8174,-0.22811 1.59679,-0.57028 0.7984,-0.34217 1.52075,-0.76038 0.72236,-0.43722 1.38769,-0.87443 l 0,2.37617 z m -3.89693,-10.83536 q 0,-0.96948 -0.22811,-1.78689 -0.22812,-0.83641 -0.70335,-1.44471 -0.45623,-0.6083 -1.17859,-0.95047 -0.70334,-0.36118 -1.67282,-0.36118 -0.96948,0 -1.8059,0.38019 -0.83641,0.36117 -1.48273,1.06452 -0.62731,0.70335 -1.02651,1.71085 -0.38019,0.98849 -0.45623,2.24311 l 8.55424,0 0,-0.85542 z"
         style="font-style:normal;font-variant:normal;font-weight:normal;font-stretch:normal;font-family:'Abyssinica SIL';-inkscape-font-specification:'Abyssinica SIL';fill:#ffffff;fill-opacity:1"
         id="path4168" />
      <path
         d="m 213.98036,400.69433 0,-1.46373 2.30014,-0.2091 q 0.34217,-0.038 0.57029,-0.24713 0.24712,-0.2091 0.24712,-0.57028 l 0,-7.03348 q -0.55128,0.26613 -1.21661,0.53226 -0.66532,0.26613 -1.40669,0.49425 -0.72236,0.2091 -1.46373,0.34217 -0.72235,0.15207 -1.36868,0.15207 -1.80589,0 -3.2316,-0.74137 -1.4257,-0.74136 -2.41419,-2.01499 -0.98849,-1.27364 -1.52076,-2.98448 -0.53226,-1.71085 -0.53226,-3.64981 0,-2.37618 0.76038,-4.27712 0.76037,-1.91995 2.20509,-3.25061 1.44472,-1.34967 3.53575,-2.07203 2.09104,-0.72235 4.75236,-0.72235 0.53226,0 1.23561,0.057 0.70335,0.038 1.44471,0.11406 0.74137,0.076 1.48274,0.2091 0.74137,0.11406 1.34967,0.24713 l 0,24.59818 q 0,0.36118 0.22811,0.55127 0.24712,0.20911 0.58929,0.26614 l 1.88193,0.2091 0,1.46373 -9.42867,0 z m 3.11755,-25.52965 q -0.53227,-0.11406 -1.21661,-0.24712 -0.66532,-0.15208 -1.46372,-0.15208 -1.59679,0 -2.8324,0.57028 -1.21661,0.57029 -2.05302,1.6158 -0.81741,1.02651 -1.25462,2.49024 -0.41821,1.44471 -0.41821,3.2316 0,1.50174 0.32316,2.90844 0.34217,1.38769 1.04552,2.45221 0.72236,1.06453 1.8249,1.71085 1.12156,0.64632 2.69934,0.64632 0.36118,0 0.7984,-0.038 0.45622,-0.057 0.91245,-0.13306 0.45622,-0.076 0.87443,-0.17109 0.43722,-0.11405 0.76038,-0.2091 l 0,-14.67527 z"
         style="font-style:normal;font-variant:normal;font-weight:normal;font-stretch:normal;font-family:'Abyssinica SIL';-inkscape-font-specification:'Abyssinica SIL';fill:#ffffff;fill-opacity:1"
         id="path4170" />
    </g>
  </g>
</svg>
